<?xml version="1.0" encoding="utf-8"?>
<!-- Generator: Adobe Illustrator 22.1.0, SVG Export Plug-In . SVG Version: 6.00 Build 0)  -->
<svg version="1.1" id="Vrstva_1" xmlns="http://www.w3.org/2000/svg" xmlns:xlink="http://www.w3.org/1999/xlink" x="0px" y="0px"
	 viewBox="0 0 1000 1000" style="enable-background:new 0 0 1000 1000;" xml:space="preserve">
<style type="text/css">
	.st0{fill:#12161A;}
	.st1{fill:#FFFFFF;}
</style>
<rect class="st0" width="1000" height="1000"/>
<title>Kreslicí plátno 1</title>
<path class="st1" d="M276.6,348.2v48.9c0,5.6,0.9,9.5,2.6,11.6s4.6,3.1,8.8,3.1h71.3v31.4h-69.1c-2.1-0.1-4.2,0.1-6.2,0.4
	c-1.9,0.4-3.7,1.4-4.9,2.9c-1.6,1.7-2.4,4.4-2.4,8v72.6c0,4.9,3.9,9,8.9,9l0,0H367v33.7H265c-11.3,0-20.5-9.1-20.5-20.4l0,0l0,0
	V329.9c0-11.3,9.2-20.4,20.4-20.4l0,0H364v30h-78.4C280.7,339.4,276.7,343.3,276.6,348.2L276.6,348.2z"/>
<path class="st1" d="M378.8,668.4V491.1c0-25.8,8.3-46.4,24.9-61.8c15.3-14.1,34.7-21.2,58.1-21.2c22.4,0,41.5,8.1,57.2,24.3
	c15.7,16.2,23.6,35.8,23.6,58.7c0,22.4-7.8,41.4-23.4,57c-15.6,15.6-34.7,23.4-57.4,23.4c-14.4,0-26.6-2.2-36.6-6.6
	c-3.8-1.8-7.3-4-10.6-6.6c-2.4-0.7-4.2,0.2-5.3,2.9c-1.1,2.9-1.7,6-1.6,9.1v98L378.8,668.4z M461.8,434.1
	c-15.1,0-28.2,5.4-39.3,16.3s-16.6,23.9-16.6,39.3c0,15.3,5.5,28.5,16.5,39.5s24.1,16.5,39.5,16.5c15.3,0,28.4-5.5,39.3-16.6
	s16.3-24.6,16.3-40.4c0.2-14.6-5.7-28.5-16.3-38.5C490.3,439.4,477.2,434.1,461.8,434.1L461.8,434.1z"/>
<path class="st1" d="M579.3,475.8v94h-24.9V309.4h26v98.7c-0.1,2.8,0.2,5.6,0.9,8.3c0.6,1.8,1.9,2.1,3.8,0.9c3.7-2,9.9-4.1,18.6-6.4
	c8.3-2.3,17-3.4,25.6-3.5c5.6-0.1,11.2,0.4,16.7,1.6c5,1.3,9.7,3.3,14.1,6c10,6.3,17.5,13.6,22.5,21.9s7.5,18.2,7.5,29.6v103.2
	h-27.8V479c0-12.7-2.9-23.3-8.8-31.8c-6.8-9.7-16-14.6-27.4-14.6c-11.7,0-22.4,4.1-32.2,12.4C584.2,453.3,579.3,463.6,579.3,475.8z"
	/>
<path class="st1" d="M747.2,603c0.1,5-1.9,9.7-5.5,13.2c-3.6,3.6-8.4,5.6-13.5,5.5c-10.3-0.2-18.5-8.8-18.2-19.1
	c0.2-10,8.3-18,18.2-18.2c5-0.1,9.9,1.7,13.5,5.1C745.4,592.9,747.2,597.4,747.2,603z M741.3,405.5v164.2h-27V405.5H741.3z"/>
</svg>
